#N canvas 192 83 1128 646 12;
#X floatatom 58 189 5 0 0 0 - - -, f 5;
#X obj 23 100 f;
#X obj 49 163 random 4;
#X obj -26 163 random 2;
#X floatatom -17 189 5 0 0 0 - - -, f 5;
#X obj 23 125 t b b f;
#X obj -26 219 sel 0 1;
#X obj 55 303 +;
#X obj 0 45 tgl 15 0 empty empty empty 0 -6 0 8 -262144 -1 -1 0 1;
#X obj 49 219 + 1;
#X floatatom 234 241 5 0 0 0 - - -, f 5;
#X obj 28 277 *;
#X msg -26 248 -1;
#X obj 234 152 moses 0;
#X obj 234 176 * -1;
#X obj 377 177 * -1;
#X msg 8 248 1;
#X obj 23 44 loadbang;
#X obj 177 465 output~;
#X obj 177 416 osc~;
#X obj 234 415 +~;
#X obj 235 353 +~;
#X obj 339 353 +~;
#X obj 451 352 +~;
#X obj 235 384 +~;
#X obj 494 303 + 0.25;
#X obj 234 302 osc~;
#X obj 274 328 osc~;
#X obj 339 303 osc~;
#X obj 381 328 osc~;
#X obj 452 303 osc~;
#X obj 494 328 osc~;
#X obj 381 303 * 1.03;
#X obj 274 302 + 0.2;
#X obj 339 278 * 3.25;
#X obj 452 278 * 1.3;
#X obj 308 152 moses 10;
#X floatatom 369 123 5 0 0 0 - - -, f 5;
#X obj 23 74 metro 20;
#X text 458 78 cloud and address input here;
#X text 460 175 if out of range \, reflect;
#X obj 427 177 * 2;
#X obj 377 202 + 200;
#X text 425 204 this could be interesting;
#X text -5 17 City layer: Wind Land/Sea/Air : Generative Random Walk
;
#X obj 369 93 random 400;
#X obj 369 64 metro 2500;
#X connect 1 0 5 0;
#X connect 2 0 0 0;
#X connect 2 0 9 0;
#X connect 3 0 4 0;
#X connect 3 0 6 0;
#X connect 5 0 3 0;
#X connect 5 1 2 0;
#X connect 5 2 7 1;
#X connect 6 0 12 0;
#X connect 6 1 16 0;
#X connect 7 0 13 0;
#X connect 8 0 38 0;
#X connect 9 0 11 1;
#X connect 10 0 1 1;
#X connect 10 0 26 0;
#X connect 10 0 33 0;
#X connect 10 0 19 0;
#X connect 10 0 34 0;
#X connect 10 0 35 0;
#X connect 11 0 7 0;
#X connect 12 0 11 0;
#X connect 13 0 14 0;
#X connect 13 1 36 0;
#X connect 14 0 10 0;
#X connect 15 0 42 0;
#X connect 16 0 11 0;
#X connect 17 0 38 0;
#X connect 17 0 46 0;
#X connect 19 0 18 0;
#X connect 19 0 18 1;
#X connect 20 0 18 0;
#X connect 20 0 18 1;
#X connect 21 0 24 0;
#X connect 22 0 24 1;
#X connect 23 0 20 1;
#X connect 24 0 20 0;
#X connect 25 0 31 0;
#X connect 26 0 21 0;
#X connect 27 0 21 1;
#X connect 28 0 22 0;
#X connect 29 0 22 1;
#X connect 30 0 23 0;
#X connect 31 0 23 1;
#X connect 32 0 29 0;
#X connect 33 0 27 0;
#X connect 34 0 28 0;
#X connect 34 0 32 0;
#X connect 35 0 25 0;
#X connect 35 0 30 0;
#X connect 36 0 10 0;
#X connect 36 1 15 0;
#X connect 37 0 36 1;
#X connect 37 0 38 1;
#X connect 37 0 38 0;
#X connect 37 0 41 0;
#X connect 38 0 1 0;
#X connect 42 0 10 0;
#X connect 45 0 37 0;
#X connect 46 0 45 0;
