#N canvas 1 63 1339 667 10;
#X obj 24 22 loadbang;
#X msg 24 61 \; pd dsp 1;
#X msg 108 62 \; pd dsp 0;
#X obj 333 61 loadbang;
#X msg 333 84 connect p1.local 13000;
#X msg 333 156 connect p1.local 13001;
#X msg 333 228 connect p2.local 13000;
#X msg 333 300 connect p2.local 13001;
#X msg 333 369 connect p3.local 13000;
#X msg 333 441 connect p3.local 13001;
#X msg 333 512 connect p4.local 13000;
#X msg 333 584 connect p4.local 13001;
#X obj 332 106 s n10;
#X obj 333 178 s n11;
#X obj 333 250 s n20;
#X obj 333 322 s n21;
#X obj 333 391 s n30;
#X obj 333 463 s n31;
#X obj 333 534 s n40;
#X obj 333 606 s n41;
#X text 284 61 p1;
#X text 279 204 p2;
#X text 278 348 p3;
#X text 280 488 p4;
#X floatatom 613 174 5 0 0 0 - - -, f 5;
#X obj 613 152 netsend 1;
#X floatatom 613 107 5 0 0 0 - - -, f 5;
#X msg 613 128 send freq \$1;
#X msg 675 105 0;
#X floatatom 769 174 5 0 0 0 - - -, f 5;
#X obj 769 152 netsend 1;
#X floatatom 769 107 5 0 0 0 - - -, f 5;
#X msg 769 128 send freq \$1;
#X msg 831 105 0;
#X obj 714 128 r n10;
#X obj 870 128 r n11;
#X floatatom 613 318 5 0 0 0 - - -, f 5;
#X obj 613 296 netsend 1;
#X floatatom 613 251 5 0 0 0 - - -, f 5;
#X msg 613 272 send freq \$1;
#X msg 675 249 0;
#X floatatom 769 318 5 0 0 0 - - -, f 5;
#X obj 769 296 netsend 1;
#X floatatom 769 251 5 0 0 0 - - -, f 5;
#X msg 769 272 send freq \$1;
#X msg 831 249 0;
#X floatatom 613 461 5 0 0 0 - - -, f 5;
#X obj 613 439 netsend 1;
#X floatatom 613 394 5 0 0 0 - - -, f 5;
#X msg 613 415 send freq \$1;
#X msg 675 392 0;
#X floatatom 769 461 5 0 0 0 - - -, f 5;
#X obj 769 439 netsend 1;
#X floatatom 769 394 5 0 0 0 - - -, f 5;
#X msg 769 415 send freq \$1;
#X msg 831 392 0;
#X floatatom 613 615 5 0 0 0 - - -, f 5;
#X obj 613 593 netsend 1;
#X floatatom 613 548 5 0 0 0 - - -, f 5;
#X msg 613 569 send freq \$1;
#X msg 675 546 0;
#X floatatom 769 615 5 0 0 0 - - -, f 5;
#X obj 769 593 netsend 1;
#X floatatom 769 548 5 0 0 0 - - -, f 5;
#X msg 769 569 send freq \$1;
#X msg 831 546 0;
#X obj 714 272 r n20;
#X obj 870 272 r n21;
#X obj 714 415 r n30;
#X obj 870 415 r n31;
#X obj 714 569 r n40;
#X obj 870 569 r n41;
#X text 569 66 p1;
#X text 564 209 p2;
#X text 563 353 p3;
#X text 565 493 p4;
#X text 20 186 route message to stream;
#X text 13 123 On private local network;
#X text 20 143 initialize/open sockets;
#X text 20 186 route message to stream;
#X text 13 123 On private local network;
#X text 20 143 initialize/open sockets;
#X text 20 164 to cluster w/ statci IP;
#X obj 333 134 loadbang;
#X obj 333 205 loadbang;
#X obj 333 276 loadbang;
#X obj 333 346 loadbang;
#X obj 333 419 loadbang;
#X obj 333 489 loadbang;
#X obj 333 562 loadbang;
#X msg 675 83 90;
#X msg 831 83 82;
#X msg 675 227 74;
#X msg 831 227 66;
#X msg 675 370 58;
#X msg 831 370 50;
#X msg 675 524 42;
#X msg 831 524 98;
#X obj 675 60 loadbang;
#X obj 675 205 loadbang;
#X obj 831 206 loadbang;
#X obj 831 62 loadbang;
#X obj 675 345 loadbang;
#X obj 831 347 loadbang;
#X obj 675 501 loadbang;
#X obj 831 501 loadbang;
#X text 240 21 initialize 2 connections for each pi;
#X text 565 17 send messages via udp;
#X connect 0 0 1 0;
#X connect 3 0 4 0;
#X connect 4 0 12 0;
#X connect 5 0 13 0;
#X connect 6 0 14 0;
#X connect 7 0 15 0;
#X connect 8 0 16 0;
#X connect 9 0 17 0;
#X connect 10 0 18 0;
#X connect 11 0 19 0;
#X connect 25 0 24 0;
#X connect 26 0 27 0;
#X connect 27 0 25 0;
#X connect 28 0 27 0;
#X connect 30 0 29 0;
#X connect 31 0 32 0;
#X connect 32 0 30 0;
#X connect 33 0 32 0;
#X connect 34 0 25 0;
#X connect 35 0 30 0;
#X connect 37 0 36 0;
#X connect 38 0 39 0;
#X connect 39 0 37 0;
#X connect 40 0 39 0;
#X connect 42 0 41 0;
#X connect 43 0 44 0;
#X connect 44 0 42 0;
#X connect 45 0 44 0;
#X connect 47 0 46 0;
#X connect 48 0 49 0;
#X connect 49 0 47 0;
#X connect 50 0 49 0;
#X connect 52 0 51 0;
#X connect 53 0 54 0;
#X connect 54 0 52 0;
#X connect 55 0 54 0;
#X connect 57 0 56 0;
#X connect 58 0 59 0;
#X connect 59 0 57 0;
#X connect 60 0 59 0;
#X connect 62 0 61 0;
#X connect 63 0 64 0;
#X connect 64 0 62 0;
#X connect 65 0 64 0;
#X connect 66 0 37 0;
#X connect 67 0 42 0;
#X connect 68 0 47 0;
#X connect 69 0 52 0;
#X connect 70 0 57 0;
#X connect 71 0 62 0;
#X connect 83 0 5 0;
#X connect 84 0 6 0;
#X connect 85 0 7 0;
#X connect 86 0 8 0;
#X connect 87 0 9 0;
#X connect 88 0 10 0;
#X connect 89 0 11 0;
#X connect 90 0 27 0;
#X connect 91 0 32 0;
#X connect 92 0 39 0;
#X connect 93 0 44 0;
#X connect 94 0 49 0;
#X connect 95 0 54 0;
#X connect 96 0 59 0;
#X connect 97 0 64 0;
#X connect 98 0 90 0;
#X connect 99 0 92 0;
#X connect 100 0 93 0;
#X connect 101 0 91 0;
#X connect 102 0 94 0;
#X connect 103 0 95 0;
#X connect 104 0 96 0;
#X connect 105 0 97 0;
