#N canvas 519 54 781 686 10;
#X obj 24 22 loadbang;
#X msg 24 61 \; pd dsp 1;
#X msg 108 62 \; pd dsp 0;
#X obj 467 287 osc~;
#X floatatom 273 271 5 0 0 0 - - -, f 5;
#X floatatom 276 437 5 0 0 0 - - -, f 5;
#X floatatom 273 201 5 0 0 0 - - -, f 5;
#X obj 276 415 netsend 1;
#X floatatom 276 370 5 0 0 0 - - -, f 5;
#X msg 276 391 send freq \$1;
#X obj 467 238 route freq;
#X obj 373 224 r n00;
#X obj 377 391 r n01;
#X msg 335 198 0;
#X msg 338 368 0;
#X msg 273 224 send freq \$1;
#X msg 339 345 58;
#X obj 273 249 netsend 1;
#X obj 467 166 netreceive 13000 1;
#X text 464 142 receive control messages via UDP;
#X obj 611 237 route freq;
#X obj 611 165 netreceive 13001 1;
#X obj 619 189 print UDP;
#X obj 611 285 osc~;
#X obj 468 350 output~;
#X text 273 124 send via udp;
#X msg 336 172 45;
#X obj 476 190 print UDP;
#X msg 18 183 connect localhost 13000;
#X msg 18 255 connect localhost 13001;
#X obj 18 205 s n00;
#X obj 18 277 s n01;
#X obj 18 160 loadbang;
#X obj 18 231 loadbang;
#X text 16 125 connect to self;
#X obj 336 149 loadbang;
#X obj 339 320 loadbang;
#X connect 0 0 1 0;
#X connect 3 0 24 0;
#X connect 6 0 15 0;
#X connect 7 0 5 0;
#X connect 8 0 9 0;
#X connect 9 0 7 0;
#X connect 10 0 3 0;
#X connect 11 0 17 0;
#X connect 12 0 7 0;
#X connect 13 0 15 0;
#X connect 14 0 9 0;
#X connect 15 0 17 0;
#X connect 16 0 9 0;
#X connect 17 0 4 0;
#X connect 18 0 10 0;
#X connect 18 0 27 0;
#X connect 20 0 23 0;
#X connect 21 0 20 0;
#X connect 21 0 22 0;
#X connect 23 0 24 1;
#X connect 26 0 15 0;
#X connect 28 0 30 0;
#X connect 29 0 31 0;
#X connect 32 0 28 0;
#X connect 33 0 29 0;
#X connect 35 0 26 0;
#X connect 36 0 16 0;
