#N canvas 168 101 1309 639 10;
#X text 20 186 route message to stream;
#X text 13 123 On private local network;
#X text 20 143 initialize/open sockets;
#X text 20 186 route message to stream;
#X text 13 123 On private local network;
#X text 20 143 initialize/open sockets;
#X obj 24 22 loadbang;
#X msg 24 61 \; pd dsp 1;
#X msg 108 62 \; pd dsp 0;
#X msg 21 219 connect p1.local 13000;
#X msg 21 290 connect p2.local 13000;
#X msg 21 363 connect p3.local 13000;
#X msg 20 429 connect p4.local 13000;
#X obj 209 228 netsend;
#X obj 210 302 netsend;
#X obj 210 374 netsend;
#X obj 210 442 netsend;
#X floatatom 209 250 5 0 0 0 - - -, f 5;
#X floatatom 210 324 5 0 0 0 - - -, f 5;
#X floatatom 210 396 5 0 0 0 - - -, f 5;
#X floatatom 210 464 5 0 0 0 - - -, f 5;
#X text 20 164 to cluster w/ statci IP;
#X obj 987 68 netreceive 13000;
#X obj 1018 94 print TCP;
#X floatatom 1096 94 5 0 0 0 - - -, f 5;
#X obj 987 242 output~;
#X obj 987 203 osc~;
#X text 984 48 receive control messages;
#X msg 592 270 connect localhost 13000;
#X obj 21 241 s n1;
#X obj 21 312 s n2;
#X obj 21 385 s n3;
#X obj 209 206 r n1;
#X obj 210 280 r n2;
#X obj 209 352 r n3;
#X obj 210 420 r n4;
#X floatatom 770 291 5 0 0 0 - - -, f 5;
#X text 207 182 send data to clustered nodes;
#X msg 591 445 connect localhost 13001;
#X floatatom 774 467 5 0 0 0 - - -, f 5;
#X floatatom 770 197 5 0 0 0 - - -, f 5;
#X obj 770 269 netsend;
#X obj 774 445 netsend 1;
#X floatatom 774 376 5 0 0 0 - - -, f 5;
#X msg 774 397 send freq \$1;
#X obj 987 149 route freq;
#X floatatom 1100 372 5 0 0 0 - - -, f 5;
#X obj 991 520 output~;
#X obj 991 481 osc~;
#X text 988 326 receive control messages;
#X obj 991 427 route freq;
#X obj 991 346 netreceive 13001 1;
#X obj 1022 372 print UDP;
#X obj 20 451 s n4;
#X obj 592 292 s n00;
#X obj 591 467 s n01;
#X obj 781 244 r n00;
#X obj 784 421 r n01;
#X msg 832 194 0;
#X msg 837 375 0;
#X msg 770 220 send freq \$1;
#X msg 833 168 62;
#X msg 836 352 58;
#X connect 6 0 7 0;
#X connect 6 0 28 0;
#X connect 6 0 38 0;
#X connect 6 0 61 0;
#X connect 6 0 62 0;
#X connect 9 0 29 0;
#X connect 10 0 30 0;
#X connect 11 0 31 0;
#X connect 12 0 53 0;
#X connect 13 0 17 0;
#X connect 14 0 18 0;
#X connect 15 0 19 0;
#X connect 16 0 20 0;
#X connect 22 0 23 0;
#X connect 22 0 45 0;
#X connect 22 1 24 0;
#X connect 26 0 25 0;
#X connect 26 0 25 1;
#X connect 28 0 54 0;
#X connect 32 0 13 0;
#X connect 33 0 14 0;
#X connect 34 0 15 0;
#X connect 35 0 16 0;
#X connect 38 0 55 0;
#X connect 40 0 60 0;
#X connect 41 0 36 0;
#X connect 42 0 39 0;
#X connect 43 0 44 0;
#X connect 44 0 42 0;
#X connect 45 0 26 0;
#X connect 48 0 47 0;
#X connect 48 0 47 1;
#X connect 50 0 48 0;
#X connect 51 0 50 0;
#X connect 51 0 52 0;
#X connect 56 0 41 0;
#X connect 57 0 42 0;
#X connect 58 0 60 0;
#X connect 59 0 44 0;
#X connect 60 0 41 0;
#X connect 61 0 60 0;
#X connect 62 0 44 0;
