#N canvas 1 55 360 450 10;
#X obj 21 264 osc~;
#X obj 21 215 route freq;
#X obj 21 143 netreceive 13000 1;
#X text 18 119 receive control messages via UDP;
#X obj 165 214 route freq;
#X obj 165 142 netreceive 13001 1;
#X obj 173 166 print UDP;
#X obj 165 262 osc~;
#X obj 22 327 output~;
#X obj 30 167 print UDP;
#X obj 24 22 loadbang;
#X msg 24 61 \; pd dsp 1;
#X msg 108 62 \; pd dsp 0;
#X connect 0 0 8 0;
#X connect 1 0 0 0;
#X connect 2 0 1 0;
#X connect 2 0 9 0;
#X connect 4 0 7 0;
#X connect 5 0 4 0;
#X connect 5 0 6 0;
#X connect 7 0 8 1;
#X connect 10 0 11 0;
